<?xml version="1.0" standalone="no"?>
<!DOCTYPE svg PUBLIC "-//W3C//DTD SVG 20010904//EN"
 "http://www.w3.org/TR/2001/REC-SVG-20010904/DTD/svg10.dtd">
<svg version="1.0" xmlns="http://www.w3.org/2000/svg"
 width="600.000000pt" height="600.000000pt" viewBox="0 0 600.000000 600.000000"
 preserveAspectRatio="xMidYMid meet">
<metadata>
Created by potrace 1.11, written by Peter Selinger 2001-2013
</metadata>
<g transform="translate(0.000000,600.000000) scale(0.100000,-0.100000)"
fill="#000000" stroke="none">
<path d="M2179 5950 c-5 -3 -45 -107 -90 -230 -44 -124 -87 -239 -95 -257 -8
-17 -14 -35 -14 -39 0 -8 -51 -149 -125 -349 -19 -49 -73 -198 -121 -330 -47
-132 -102 -283 -121 -335 -19 -52 -45 -124 -57 -160 -48 -137 -237 -656 -246
-675 -5 -11 -22 -58 -39 -105 -40 -117 -320 -890 -330 -915 -5 -11 -32 -85
-61 -165 -28 -80 -66 -185 -85 -235 -29 -78 -250 -690 -321 -890 -14 -38 -32
-86 -40 -105 -7 -19 -77 -210 -154 -425 -77 -214 -143 -397 -147 -405 -3 -8
-7 -19 -9 -25 -1 -5 -23 -66 -48 -134 -25 -69 -46 -128 -46 -132 0 -9 2373
-10 2387 -1 6 4 14 47 17 97 4 50 9 108 11 130 2 22 7 69 9 105 15 176 17 208
21 240 2 19 7 80 11 135 3 55 8 107 9 115 2 8 6 62 10 120 4 58 9 112 10 120
2 8 6 58 10 110 3 52 8 106 10 120 2 14 7 67 10 118 4 51 8 110 10 130 7 77
15 169 20 232 3 36 7 88 10 115 3 28 7 79 10 115 3 36 7 90 10 120 2 30 7 87
10 125 3 39 8 93 10 120 2 28 7 82 10 120 3 39 8 93 10 120 6 63 13 150 20
240 3 39 7 90 10 115 2 25 7 79 10 120 3 41 8 93 10 115 2 22 7 76 10 120 3
44 8 98 10 120 2 22 7 76 10 120 3 44 7 100 10 125 6 65 14 155 20 230 3 36 7
85 10 110 3 25 7 83 10 130 3 47 8 96 10 110 2 14 6 69 10 122 3 54 8 105 9
115 2 10 7 63 11 118 3 55 8 114 10 130 2 17 7 66 10 110 3 44 8 98 10 120 2
22 7 78 10 125 3 47 8 101 10 120 2 19 7 71 10 115 4 44 8 94 10 110 1 17 6
68 9 115 4 47 9 101 11 120 2 19 6 80 10 135 l7 100 -367 0 c-202 0 -371 -2
-376 -5z"/>
<path d="M3085 5864 c4 -51 8 -105 10 -121 2 -15 6 -68 10 -118 4 -49 8 -103
10 -120 1 -16 6 -66 9 -110 4 -44 9 -100 11 -125 3 -25 7 -74 10 -110 5 -61 9
-104 20 -225 2 -27 7 -81 10 -120 3 -38 7 -92 10 -120 2 -27 7 -81 10 -120 3
-38 7 -90 10 -115 6 -64 16 -178 20 -225 11 -148 16 -204 20 -235 2 -19 7 -71
10 -115 3 -44 8 -100 10 -125 6 -62 15 -174 20 -240 8 -105 16 -199 29 -335 3
-27 8 -86 11 -130 3 -44 8 -96 10 -115 3 -19 7 -69 10 -110 5 -71 8 -99 19
-230 3 -30 8 -89 11 -130 3 -41 8 -91 10 -110 2 -19 7 -71 10 -115 4 -44 8
-96 10 -115 2 -19 6 -69 9 -110 4 -41 8 -93 10 -115 2 -22 7 -76 10 -120 4
-44 8 -100 11 -125 2 -25 7 -74 10 -110 2 -36 9 -117 15 -180 5 -63 12 -144
15 -180 7 -82 15 -172 20 -230 10 -106 17 -188 20 -225 9 -142 17 -232 20
-245 2 -8 6 -58 10 -110 3 -52 8 -106 10 -120 2 -14 7 -68 11 -120 3 -52 8
-98 10 -102 6 -9 2383 -8 2389 2 2 4 -18 70 -46 146 -28 76 -68 186 -89 244
-70 197 -142 395 -175 485 -46 124 -102 277 -179 490 -35 99 -193 533 -349
965 -157 432 -322 886 -366 1010 -45 124 -85 234 -90 245 -5 11 -28 74 -51
140 -23 66 -46 129 -50 140 -5 11 -50 135 -100 275 -50 140 -95 264 -100 275
-5 11 -16 40 -24 65 -8 25 -63 176 -121 335 -59 160 -111 306 -117 325 -6 19
-13 40 -16 45 -4 6 -7 15 -9 20 -1 6 -59 168 -129 360 l-128 350 -379 0 -379
0 7 -91z"/>
</g>
</svg>
